<svg width="337" height="63" viewBox="0 0 337 63" fill="none" xmlns="http://www.w3.org/2000/svg">
<path d="M0.590909 49V2.45454H9.02273V22.1591H30.5909V2.45454H39.0455V49H30.5909V29.2273H9.02273V49H0.590909ZM52.9659 62.0909C51.8447 62.0909 50.8068 62 49.8523 61.8182C48.9129 61.6515 48.1629 61.4545 47.6023 61.2273L49.5114 54.8182C50.7083 55.1667 51.7765 55.3333 52.7159 55.3182C53.6553 55.303 54.4811 55.0076 55.1932 54.4318C55.9205 53.8712 56.5341 52.9318 57.0341 51.6136L57.7386 49.7273L45.0795 14.0909H53.8068L61.8523 40.4545H62.2159L70.2841 14.0909H79.0341L65.0568 53.2273C64.4053 55.0758 63.5417 56.6591 62.4659 57.9773C61.3902 59.3106 60.072 60.3258 58.5114 61.0227C56.9659 61.7348 55.1174 62.0909 52.9659 62.0909ZM96.4943 49.6136C93.7519 49.6136 91.2973 48.9091 89.1307 47.5C86.964 46.0909 85.2519 44.0455 83.9943 41.3636C82.7367 38.6818 82.108 35.4242 82.108 31.5909C82.108 27.7121 82.7443 24.4394 84.017 21.7727C85.3049 19.0909 87.0398 17.0682 89.2216 15.7045C91.4034 14.3258 93.8352 13.6364 96.517 13.6364C98.5625 13.6364 100.244 13.9848 101.562 14.6818C102.881 15.3636 103.926 16.1894 104.699 17.1591C105.472 18.1136 106.07 19.0152 106.494 19.8636H106.835V2.45454H115.085V49H106.994V43.5H106.494C106.07 44.3485 105.456 45.25 104.653 46.2045C103.85 47.1439 102.79 47.947 101.472 48.6136C100.153 49.2803 98.4943 49.6136 96.4943 49.6136ZM98.7898 42.8636C100.532 42.8636 102.017 42.3939 103.244 41.4545C104.472 40.5 105.403 39.1742 106.04 37.4773C106.676 35.7803 106.994 33.803 106.994 31.5455C106.994 29.2879 106.676 27.3258 106.04 25.6591C105.419 23.9924 104.494 22.697 103.267 21.7727C102.055 20.8485 100.563 20.3864 98.7898 20.3864C96.9564 20.3864 95.4261 20.8636 94.1989 21.8182C92.9716 22.7727 92.0473 24.0909 91.4261 25.7727C90.8049 27.4545 90.4943 29.3788 90.4943 31.5455C90.4943 33.7273 90.8049 35.6742 91.4261 37.3864C92.0625 39.0833 92.9943 40.4242 94.2216 41.4091C95.464 42.3788 96.9867 42.8636 98.7898 42.8636ZM123.852 49V14.0909H131.83V19.9091H132.193C132.83 17.8939 133.92 16.3409 135.466 15.25C137.027 14.1439 138.807 13.5909 140.807 13.5909C141.261 13.5909 141.769 13.6136 142.33 13.6591C142.905 13.6894 143.383 13.7424 143.761 13.8182V21.3864C143.413 21.2652 142.86 21.1591 142.102 21.0682C141.36 20.9621 140.64 20.9091 139.943 20.9091C138.443 20.9091 137.095 21.2348 135.898 21.8864C134.716 22.5227 133.784 23.4091 133.102 24.5455C132.42 25.6818 132.08 26.9924 132.08 28.4773V49H123.852ZM163.017 49.6818C159.608 49.6818 156.653 48.9318 154.153 47.4318C151.653 45.9318 149.714 43.8333 148.335 41.1364C146.972 38.4394 146.29 35.2879 146.29 31.6818C146.29 28.0758 146.972 24.9167 148.335 22.2045C149.714 19.4924 151.653 17.3864 154.153 15.8864C156.653 14.3864 159.608 13.6364 163.017 13.6364C166.426 13.6364 169.381 14.3864 171.881 15.8864C174.381 17.3864 176.313 19.4924 177.676 22.2045C179.055 24.9167 179.744 28.0758 179.744 31.6818C179.744 35.2879 179.055 38.4394 177.676 41.1364C176.313 43.8333 174.381 45.9318 171.881 47.4318C169.381 48.9318 166.426 49.6818 163.017 49.6818ZM163.062 43.0909C164.911 43.0909 166.456 42.5833 167.699 41.5682C168.941 40.5379 169.866 39.1591 170.472 37.4318C171.093 35.7045 171.403 33.7803 171.403 31.6591C171.403 29.5227 171.093 27.5909 170.472 25.8636C169.866 24.1212 168.941 22.7348 167.699 21.7045C166.456 20.6742 164.911 20.1591 163.062 20.1591C161.169 20.1591 159.593 20.6742 158.335 21.7045C157.093 22.7348 156.161 24.1212 155.54 25.8636C154.934 27.5909 154.631 29.5227 154.631 31.6591C154.631 33.7803 154.934 35.7045 155.54 37.4318C156.161 39.1591 157.093 40.5379 158.335 41.5682C159.593 42.5833 161.169 43.0909 163.062 43.0909ZM226.932 18.1591H218.432C218.189 16.7652 217.742 15.5303 217.091 14.4545C216.439 13.3636 215.629 12.4394 214.659 11.6818C213.689 10.9242 212.583 10.3561 211.341 9.97727C210.114 9.58333 208.788 9.38636 207.364 9.38636C204.833 9.38636 202.591 10.0227 200.636 11.2955C198.682 12.553 197.152 14.4015 196.045 16.8409C194.939 19.2652 194.386 22.2273 194.386 25.7273C194.386 29.2879 194.939 32.2879 196.045 34.7273C197.167 37.1515 198.697 38.9848 200.636 40.2273C202.591 41.4545 204.826 42.0682 207.341 42.0682C208.735 42.0682 210.038 41.8864 211.25 41.5227C212.477 41.1439 213.576 40.5909 214.545 39.8636C215.53 39.1364 216.356 38.2424 217.023 37.1818C217.705 36.1212 218.174 34.9091 218.432 33.5455L226.932 33.5909C226.614 35.803 225.924 37.8788 224.864 39.8182C223.818 41.7576 222.447 43.4697 220.75 44.9545C219.053 46.4242 217.068 47.5758 214.795 48.4091C212.523 49.2273 210 49.6364 207.227 49.6364C203.136 49.6364 199.485 48.6894 196.273 46.7955C193.061 44.9015 190.53 42.1667 188.682 38.5909C186.833 35.0152 185.909 30.7273 185.909 25.7273C185.909 20.7121 186.841 16.4242 188.705 12.8636C190.568 9.28788 193.106 6.55303 196.318 4.65909C199.53 2.76515 203.167 1.81818 207.227 1.81818C209.818 1.81818 212.227 2.18182 214.455 2.90909C216.682 3.63636 218.667 4.70455 220.409 6.11364C222.152 7.50757 223.583 9.2197 224.705 11.25C225.841 13.2652 226.583 15.5682 226.932 18.1591ZM242.517 2.45454V49H234.29V2.45454H242.517ZM250.977 49V14.0909H259.205V49H250.977ZM255.114 9.13636C253.811 9.13636 252.689 8.70455 251.75 7.84091C250.811 6.96212 250.341 5.90909 250.341 4.68182C250.341 3.43939 250.811 2.38636 251.75 1.52272C252.689 0.643937 253.811 0.204544 255.114 0.204544C256.432 0.204544 257.553 0.643937 258.477 1.52272C259.417 2.38636 259.886 3.43939 259.886 4.68182C259.886 5.90909 259.417 6.96212 258.477 7.84091C257.553 8.70455 256.432 9.13636 255.114 9.13636ZM282.892 49.6818C279.407 49.6818 276.415 48.9167 273.915 47.3864C271.43 45.8561 269.513 43.7424 268.165 41.0455C266.831 38.3333 266.165 35.2121 266.165 31.6818C266.165 28.1364 266.847 25.0076 268.21 22.2955C269.574 19.5682 271.498 17.447 273.983 15.9318C276.483 14.4015 279.438 13.6364 282.847 13.6364C285.68 13.6364 288.188 14.1591 290.369 15.2045C292.566 16.2348 294.316 17.697 295.619 19.5909C296.922 21.4697 297.665 23.6667 297.847 26.1818H289.983C289.665 24.5 288.907 23.0985 287.71 21.9773C286.528 20.8409 284.945 20.2727 282.96 20.2727C281.278 20.2727 279.801 20.7273 278.528 21.6364C277.256 22.5303 276.263 23.8182 275.551 25.5C274.854 27.1818 274.506 29.197 274.506 31.5455C274.506 33.9242 274.854 35.9697 275.551 37.6818C276.248 39.3788 277.225 40.6894 278.483 41.6136C279.756 42.5227 281.248 42.9773 282.96 42.9773C284.172 42.9773 285.256 42.75 286.21 42.2955C287.18 41.8258 287.991 41.1515 288.642 40.2727C289.294 39.3939 289.741 38.3258 289.983 37.0682H297.847C297.65 39.5379 296.922 41.7273 295.665 43.6364C294.407 45.5303 292.695 47.0152 290.528 48.0909C288.362 49.1515 285.816 49.6818 282.892 49.6818ZM312.102 38.0455L312.08 28.1136H313.398L325.943 14.0909H335.557L320.125 31.2727H318.42L312.102 38.0455ZM304.602 49V2.45454H312.83V49H304.602ZM326.511 49L315.148 33.1136L320.693 27.3182L336.352 49H326.511Z" fill="black"/>
</svg>
